<svg width="161" height="44" viewBox="0 0 161 44" fill="none" xmlns="http://www.w3.org/2000/svg">
<path d="M12.96 33.32C10.6133 33.32 8.59733 32.8507 6.912 31.912C5.248 30.952 3.968 29.608 3.072 27.88C2.176 26.1307 1.728 24.072 1.728 21.704C1.728 19.9333 1.984 18.344 2.496 16.936C3.008 15.5067 3.744 14.2907 4.704 13.288C5.664 12.264 6.83733 11.4853 8.224 10.952C9.632 10.3973 11.2107 10.12 12.96 10.12C14.1333 10.12 15.2853 10.2693 16.416 10.568C17.5467 10.8667 18.5387 11.2933 19.392 11.848C19.84 12.1253 20.1387 12.4667 20.288 12.872C20.4373 13.256 20.4693 13.64 20.384 14.024C20.2987 14.3867 20.1173 14.696 19.84 14.952C19.584 15.208 19.2533 15.3573 18.848 15.4C18.464 15.4213 18.0373 15.2827 17.568 14.984C16.9067 14.5573 16.192 14.248 15.424 14.056C14.656 13.864 13.8773 13.768 13.088 13.768C11.5733 13.768 10.2933 14.0773 9.248 14.696C8.20267 15.3147 7.41333 16.2107 6.88 17.384C6.34667 18.5573 6.08 19.9973 6.08 21.704C6.08 23.3893 6.34667 24.8293 6.88 26.024C7.41333 27.2187 8.20267 28.1253 9.248 28.744C10.2933 29.3627 11.5733 29.672 13.088 29.672C13.8987 29.672 14.6987 29.576 15.488 29.384C16.2773 29.1707 17.024 28.8507 17.728 28.424C18.1973 28.1467 18.6133 28.0293 18.976 28.072C19.36 28.0933 19.68 28.2213 19.936 28.456C20.192 28.6907 20.3627 28.9893 20.448 29.352C20.5333 29.6933 20.512 30.056 20.384 30.44C20.256 30.8027 20 31.1227 19.616 31.4C18.7627 32.0187 17.7387 32.4987 16.544 32.84C15.3707 33.16 14.176 33.32 12.96 33.32ZM25.814 33.224C25.174 33.224 24.6833 33.032 24.342 32.648C24.0007 32.264 23.83 31.7307 23.83 31.048V19.304C23.83 18.6 24.0007 18.0667 24.342 17.704C24.6833 17.32 25.174 17.128 25.814 17.128C26.454 17.128 26.9447 17.32 27.286 17.704C27.6487 18.0667 27.83 18.6 27.83 19.304V31.048C27.83 31.7307 27.6593 32.264 27.318 32.648C26.9767 33.032 26.4753 33.224 25.814 33.224ZM25.814 14.152C25.0673 14.152 24.4807 13.9707 24.054 13.608C23.6487 13.224 23.446 12.7013 23.446 12.04C23.446 11.3573 23.6487 10.8347 24.054 10.472C24.4807 10.1093 25.0673 9.928 25.814 9.928C26.582 9.928 27.1687 10.1093 27.574 10.472C27.9793 10.8347 28.182 11.3573 28.182 12.04C28.182 12.7013 27.9793 13.224 27.574 13.608C27.1687 13.9707 26.582 14.152 25.814 14.152ZM39.1543 33.32C37.7676 33.32 36.6049 33.0853 35.6663 32.616C34.7489 32.1467 34.0663 31.464 33.6183 30.568C33.1703 29.6507 32.9463 28.52 32.9463 27.176V20.36H31.2823C30.7703 20.36 30.3756 20.232 30.0983 19.976C29.8209 19.6987 29.6822 19.3253 29.6822 18.856C29.6822 18.3653 29.8209 17.992 30.0983 17.736C30.3756 17.48 30.7703 17.352 31.2823 17.352H32.9463V14.44C32.9463 13.7787 33.1169 13.2773 33.4583 12.936C33.8209 12.5947 34.3223 12.424 34.9623 12.424C35.6023 12.424 36.0929 12.5947 36.4343 12.936C36.7756 13.2773 36.9463 13.7787 36.9463 14.44V17.352H40.3383C40.8503 17.352 41.2449 17.48 41.5223 17.736C41.7996 17.992 41.9383 18.3653 41.9383 18.856C41.9383 19.3253 41.7996 19.6987 41.5223 19.976C41.2449 20.232 40.8503 20.36 40.3383 20.36H36.9463V26.952C36.9463 27.976 37.1703 28.744 37.6183 29.256C38.0663 29.768 38.7916 30.024 39.7943 30.024C40.1569 30.024 40.4769 29.992 40.7543 29.928C41.0316 29.864 41.2769 29.8213 41.4903 29.8C41.7463 29.7787 41.9596 29.864 42.1303 30.056C42.3009 30.2267 42.3863 30.5893 42.3863 31.144C42.3863 31.5707 42.3116 31.9547 42.1623 32.296C42.0343 32.616 41.7889 32.84 41.4263 32.968C41.1489 33.0533 40.7863 33.128 40.3383 33.192C39.8903 33.2773 39.4956 33.32 39.1543 33.32ZM48.4855 39.016C48.0162 39.016 47.6322 38.888 47.3335 38.632C47.0348 38.3973 46.8535 38.0773 46.7895 37.672C46.7468 37.2667 46.8215 36.84 47.0135 36.392L49.1895 31.56V33.224L43.3655 19.752C43.1735 19.2827 43.1095 18.8453 43.1735 18.44C43.2375 18.0347 43.4295 17.7147 43.7495 17.48C44.0908 17.224 44.5495 17.096 45.1255 17.096C45.6162 17.096 46.0108 17.2133 46.3095 17.448C46.6082 17.6613 46.8748 18.0773 47.1095 18.696L51.4295 29.48H50.4695L54.8855 18.664C55.1202 18.0667 55.3975 17.6613 55.7175 17.448C56.0375 17.2133 56.4642 17.096 56.9975 17.096C57.4668 17.096 57.8402 17.224 58.1175 17.48C58.3948 17.7147 58.5655 18.0347 58.6295 18.44C58.6935 18.824 58.6188 19.2507 58.4055 19.72L50.6295 37.48C50.3522 38.0773 50.0535 38.4827 49.7335 38.696C49.4135 38.9093 48.9975 39.016 48.4855 39.016Z" fill="black"/>
<path d="M69.5213 33.32C68.5826 33.32 67.6439 33.2453 66.7053 33.096C65.7666 32.968 64.8813 32.7653 64.0493 32.488C63.2173 32.1893 62.4706 31.8267 61.8093 31.4C61.4253 31.144 61.1586 30.8347 61.0093 30.472C60.8599 30.1093 60.8066 29.7573 60.8493 29.416C60.9133 29.0533 61.0519 28.744 61.2653 28.488C61.4999 28.2107 61.7879 28.04 62.1293 27.976C62.4706 27.912 62.8439 28.008 63.2493 28.264C64.1879 28.8187 65.1799 29.224 66.2253 29.48C67.2706 29.736 68.3693 29.864 69.5213 29.864C71.2066 29.864 72.4333 29.5867 73.2013 29.032C73.9693 28.456 74.3533 27.72 74.3533 26.824C74.3533 26.0773 74.0759 25.4907 73.5213 25.064C72.9879 24.6373 72.0599 24.2853 70.7373 24.008L67.2173 23.272C65.1906 22.8453 63.6759 22.1307 62.6733 21.128C61.6919 20.104 61.2013 18.76 61.2013 17.096C61.2013 16.0507 61.4146 15.1013 61.8413 14.248C62.2679 13.3947 62.8653 12.6587 63.6333 12.04C64.4226 11.4213 65.3506 10.952 66.4173 10.632C67.5053 10.2907 68.6999 10.12 70.0013 10.12C71.2813 10.12 72.4973 10.28 73.6493 10.6C74.8013 10.92 75.8359 11.3893 76.7533 12.008C77.0946 12.2427 77.3186 12.5307 77.4253 12.872C77.5533 13.2133 77.5853 13.5547 77.5213 13.896C77.4573 14.216 77.3079 14.4933 77.0733 14.728C76.8386 14.9627 76.5399 15.1013 76.1772 15.144C75.8359 15.1867 75.4413 15.08 74.9933 14.824C74.2039 14.376 73.4039 14.056 72.5933 13.864C71.7826 13.672 70.9079 13.576 69.9693 13.576C68.9879 13.576 68.1453 13.7147 67.4413 13.992C66.7373 14.2693 66.1933 14.664 65.8093 15.176C65.4466 15.6667 65.2653 16.2533 65.2653 16.936C65.2653 17.704 65.5213 18.3227 66.0333 18.792C66.5453 19.24 67.4199 19.592 68.6573 19.848L72.1453 20.584C74.2573 21.032 75.8253 21.736 76.8493 22.696C77.8946 23.656 78.4173 24.936 78.4173 26.536C78.4173 27.56 78.2039 28.488 77.7773 29.32C77.3719 30.152 76.7746 30.8667 75.9853 31.464C75.2173 32.0613 74.2893 32.52 73.2013 32.84C72.1133 33.16 70.8866 33.32 69.5213 33.32ZM83.5328 39.016C82.8928 39.016 82.4021 38.8453 82.0608 38.504C81.7194 38.1627 81.5488 37.6613 81.5488 37V19.112C81.5488 18.4507 81.7194 17.9493 82.0608 17.608C82.4021 17.2667 82.8821 17.096 83.5008 17.096C84.1408 17.096 84.6314 17.2667 84.9728 17.608C85.3141 17.9493 85.4848 18.4507 85.4848 19.112V21.608L85.1328 20.648C85.4528 19.56 86.1034 18.6853 87.0848 18.024C88.0874 17.3627 89.2501 17.032 90.5728 17.032C91.9381 17.032 93.1328 17.3627 94.1568 18.024C95.2021 18.6853 96.0128 19.624 96.5888 20.84C97.1648 22.0347 97.4528 23.4747 97.4528 25.16C97.4528 26.824 97.1648 28.2747 96.5888 29.512C96.0128 30.728 95.2128 31.6667 94.1888 32.328C93.1648 32.9893 91.9594 33.32 90.5728 33.32C89.2714 33.32 88.1301 33 87.1488 32.36C86.1674 31.6987 85.5061 30.8453 85.1648 29.8H85.5488V37C85.5488 37.6613 85.3674 38.1627 85.0048 38.504C84.6634 38.8453 84.1728 39.016 83.5328 39.016ZM89.4528 30.28C90.2421 30.28 90.9354 30.088 91.5328 29.704C92.1301 29.32 92.5888 28.7547 92.9088 28.008C93.2501 27.24 93.4208 26.2907 93.4208 25.16C93.4208 23.4533 93.0581 22.184 92.3328 21.352C91.6074 20.4987 90.6474 20.072 89.4528 20.072C88.6634 20.072 87.9701 20.264 87.3728 20.648C86.7754 21.0107 86.3061 21.576 85.9648 22.344C85.6448 23.0907 85.4848 24.0293 85.4848 25.16C85.4848 26.8453 85.8474 28.1253 86.5728 29C87.2981 29.8533 88.2581 30.28 89.4528 30.28ZM102.784 33.256C102.123 33.256 101.611 33.0853 101.248 32.744C100.907 32.3813 100.736 31.8693 100.736 31.208V19.112C100.736 18.4507 100.907 17.9493 101.248 17.608C101.59 17.2667 102.07 17.096 102.688 17.096C103.307 17.096 103.787 17.2667 104.128 17.608C104.47 17.9493 104.64 18.4507 104.64 19.112V21.128H104.32C104.619 19.848 105.206 18.8773 106.08 18.216C106.955 17.5547 108.118 17.16 109.568 17.032C110.016 16.9893 110.368 17.1067 110.624 17.384C110.902 17.64 111.062 18.0453 111.104 18.6C111.147 19.1333 111.019 19.5707 110.72 19.912C110.443 20.232 110.016 20.424 109.44 20.488L108.736 20.552C107.435 20.68 106.454 21.0853 105.792 21.768C105.131 22.4293 104.8 23.368 104.8 24.584V31.208C104.8 31.8693 104.63 32.3813 104.288 32.744C103.947 33.0853 103.446 33.256 102.784 33.256ZM120.154 33.32C118.532 33.32 117.124 32.9893 115.93 32.328C114.735 31.6667 113.807 30.728 113.146 29.512C112.484 28.2747 112.154 26.824 112.154 25.16C112.154 23.9013 112.335 22.7813 112.698 21.8C113.082 20.7973 113.626 19.944 114.33 19.24C115.034 18.5147 115.876 17.9707 116.858 17.608C117.839 17.224 118.938 17.032 120.154 17.032C121.775 17.032 123.183 17.3627 124.378 18.024C125.572 18.6853 126.5 19.624 127.162 20.84C127.823 22.056 128.154 23.496 128.154 25.16C128.154 26.4187 127.962 27.5493 127.578 28.552C127.215 29.5547 126.682 30.4187 125.978 31.144C125.274 31.848 124.431 32.392 123.45 32.776C122.468 33.1387 121.37 33.32 120.154 33.32ZM120.154 30.28C120.943 30.28 121.636 30.088 122.234 29.704C122.831 29.32 123.29 28.7547 123.61 28.008C123.951 27.24 124.122 26.2907 124.122 25.16C124.122 23.4533 123.759 22.184 123.034 21.352C122.308 20.4987 121.348 20.072 120.154 20.072C119.364 20.072 118.671 20.264 118.074 20.648C117.476 21.0107 117.007 21.576 116.666 22.344C116.346 23.0907 116.186 24.0293 116.186 25.16C116.186 26.8453 116.548 28.1253 117.274 29C117.999 29.8533 118.959 30.28 120.154 30.28ZM137.119 33.32C135.818 33.32 134.74 33.0853 133.887 32.616C133.034 32.1253 132.394 31.4 131.967 30.44C131.562 29.48 131.359 28.2853 131.359 26.856V19.112C131.359 18.4293 131.53 17.928 131.871 17.608C132.212 17.2667 132.703 17.096 133.343 17.096C133.983 17.096 134.474 17.2667 134.815 17.608C135.178 17.928 135.359 18.4293 135.359 19.112V26.92C135.359 28.0293 135.583 28.8507 136.031 29.384C136.479 29.9173 137.194 30.184 138.175 30.184C139.242 30.184 140.116 29.8213 140.799 29.096C141.482 28.3493 141.823 27.368 141.823 26.152V19.112C141.823 18.4293 141.994 17.928 142.335 17.608C142.676 17.2667 143.167 17.096 143.807 17.096C144.447 17.096 144.938 17.2667 145.279 17.608C145.642 17.928 145.823 18.4293 145.823 19.112V31.208C145.823 32.5733 145.172 33.256 143.871 33.256C143.252 33.256 142.772 33.0853 142.431 32.744C142.09 32.3813 141.919 31.8693 141.919 31.208V28.776L142.367 29.736C141.919 30.888 141.236 31.7733 140.319 32.392C139.423 33.0107 138.356 33.32 137.119 33.32ZM157.154 33.32C155.768 33.32 154.605 33.0853 153.666 32.616C152.749 32.1467 152.066 31.464 151.618 30.568C151.17 29.6507 150.946 28.52 150.946 27.176V20.36H149.282C148.77 20.36 148.376 20.232 148.098 19.976C147.821 19.6987 147.682 19.3253 147.682 18.856C147.682 18.3653 147.821 17.992 148.098 17.736C148.376 17.48 148.77 17.352 149.282 17.352H150.946V14.44C150.946 13.7787 151.117 13.2773 151.458 12.936C151.821 12.5947 152.322 12.424 152.962 12.424C153.602 12.424 154.093 12.5947 154.434 12.936C154.776 13.2773 154.946 13.7787 154.946 14.44V17.352H158.338C158.85 17.352 159.245 17.48 159.522 17.736C159.8 17.992 159.938 18.3653 159.938 18.856C159.938 19.3253 159.8 19.6987 159.522 19.976C159.245 20.232 158.85 20.36 158.338 20.36H154.946V26.952C154.946 27.976 155.17 28.744 155.618 29.256C156.066 29.768 156.792 30.024 157.794 30.024C158.157 30.024 158.477 29.992 158.754 29.928C159.032 29.864 159.277 29.8213 159.49 29.8C159.746 29.7787 159.96 29.864 160.13 30.056C160.301 30.2267 160.386 30.5893 160.386 31.144C160.386 31.5707 160.312 31.9547 160.162 32.296C160.034 32.616 159.789 32.84 159.426 32.968C159.149 33.0533 158.786 33.128 158.338 33.192C157.89 33.2773 157.496 33.32 157.154 33.32Z" fill="#3F573E"/>
<rect x="23" y="9" width="6" height="6" fill="white"/>
<path d="M27.9581 6C27.9581 6 28.9581 4.5 30.9581 3C32.9581 1.5 33.9581 1.5 33.9581 1.5C33.9581 1.5 32.4581 2.5 31.9581 3C31.4581 3.5 29.9581 6 29.9581 6C29.9581 6 28.4581 8 26.4581 11C24.4581 14 23.9581 16 23.9581 16L24.4581 11L27.9581 6Z" fill="url(#paint0_linear_4_20)"/>
<g filter="url(#filter0_d_4_20)">
<path d="M24.4581 6C24.4581 6 23.6672 4.32451 21.9581 2.5C20.249 0.675494 19.4581 8.46023e-09 19.4581 8.46023e-09C19.4581 8.46023e-09 20.0525 1.06979 20.4581 1.64902C20.8637 2.22825 22.6186 4.77709 22.6186 4.77709C22.6186 4.77709 23.7485 7.00718 25.1972 10.3089C26.6459 13.6106 26.791 15.6671 26.791 15.6671L27.1668 10.6562L24.4581 6Z" fill="url(#paint1_linear_4_20)"/>
</g>
<path d="M22.7763 8.75C22.7763 8.75 22.049 7.9375 20.9581 7C19.8672 6.0625 18.9581 5 18.9581 5C18.9581 5 20.1854 6.6875 20.4581 7C20.7308 7.3125 21.6854 8.75 21.6854 8.75C21.6854 8.75 22.5036 10 23.5945 11.875C24.6854 13.75 24.1399 15.5 24.1399 15.5L25.4581 12L22.7763 8.75Z" fill="url(#paint2_linear_4_20)"/>
<line x1="4" y1="40.5" x2="161" y2="40.5" stroke="url(#paint3_linear_4_20)"/>
<defs>
<filter id="filter0_d_4_20" x="15.4581" y="0" width="15.7087" height="23.6671" filterUnits="userSpaceOnUse" color-interpolation-filters="sRGB">
<feFlood flood-opacity="0" result="BackgroundImageFix"/>
<feColorMatrix in="SourceAlpha" type="matrix" values="0 0 0 0 0 0 0 0 0 0 0 0 0 0 0 0 0 0 127 0" result="hardAlpha"/>
<feOffset dy="4"/>
<feGaussianBlur stdDeviation="2"/>
<feComposite in2="hardAlpha" operator="out"/>
<feColorMatrix type="matrix" values="0 0 0 0 0 0 0 0 0 0 0 0 0 0 0 0 0 0 0.25 0"/>
<feBlend mode="normal" in2="BackgroundImageFix" result="effect1_dropShadow_4_20"/>
<feBlend mode="normal" in="SourceGraphic" in2="effect1_dropShadow_4_20" result="shape"/>
</filter>
<linearGradient id="paint0_linear_4_20" x1="29.4581" y1="0" x2="29.4581" y2="16" gradientUnits="userSpaceOnUse">
<stop stop-color="#88BD87"/>
<stop offset="1" stop-color="#3F573E"/>
</linearGradient>
<linearGradient id="paint1_linear_4_20" x1="24.1529" y1="-1.04494" x2="21.3746" y2="14.712" gradientUnits="userSpaceOnUse">
<stop stop-color="#B9FFB7"/>
<stop offset="1" stop-color="#6F996E"/>
</linearGradient>
<linearGradient id="paint2_linear_4_20" x1="22.2081" y1="5" x2="22.2081" y2="15.5" gradientUnits="userSpaceOnUse">
<stop stop-color="#88BD87"/>
<stop offset="1" stop-color="#3F573E"/>
</linearGradient>
<linearGradient id="paint3_linear_4_20" x1="4" y1="41.5" x2="161" y2="41.5" gradientUnits="userSpaceOnUse">
<stop/>
<stop offset="0.396683" stop-color="#3F573E"/>
<stop offset="1" stop-color="#3F573E"/>
</linearGradient>
</defs>
</svg>
